# xmcd
#
# Track frame offsets:
#	150
#	26075
#	45207
#	57747
#	77962
#	105509
#	139767
#	147395
#	170703
#	198039
#	215979
#	236528
#
# Disc length: 3624 seconds
# Revision: 0
# Processed by: cddbd v1.5.2PL0 Copyright (c) Steve Scherf et al.
# Submitted via: dBpowerAMP V12.0
#
DISCID=b00e260c
DTITLE=Zac Brown Band - Pass The Jar (Live), Disc 2
DYEAR=2010
DGENRE=Country
TTITLE0=Can't You See
TTITLE1=Highway 20 Ride
TTITLE2=Whiskwy's Gone
TTITLE3=Colder Waether
TTITLE4=Junkyard
TTITLE5=Free - Into The Mystic
TTITLE6=America The Beautiful
TTITLE7=Chicken Fried
TTITLE8=I Shall Be Released
TTITLE9=Bar
TTITLE10=Toes
TTITLE11=We're Going To Make This Day
EXTD=
EXTT0=
EXTT1=
EXTT2=
EXTT3=
EXTT4=
EXTT5=
EXTT6=
EXTT7=
EXTT8=
EXTT9=
EXTT10=
EXTT11=
PLAYORDER=
